<svg width="55" height="56" viewBox="0 0 55 56" fill="none" xmlns="http://www.w3.org/2000/svg">
<path d="M23.6503 0.913086H39.333V6.14062H23.6503V0.913086ZM49.8377 17.6125L53.5858 13.8643L49.89 10.1684L46.1444 13.914C42.0406 10.6254 36.9521 8.80865 31.6934 8.75463C26.4347 8.70061 21.31 10.4124 17.1394 13.616L20.851 17.3798C23.9519 15.1774 27.6594 13.9903 31.4629 13.9819L31.489 13.9845V32.2287L44.435 45.1877C41.8793 47.7555 38.6188 49.5068 35.0668 50.2198C31.5148 50.9327 27.8311 50.5753 24.4824 49.1928C21.1337 47.8103 18.2707 45.4648 16.2562 42.4537C14.2418 39.4425 13.1664 35.9012 13.1665 32.2783H21.0078L10.5527 21.8232L0.0976562 32.2783H7.93897C7.93541 36.0373 8.83273 39.7425 10.5558 43.0833C12.2788 46.4242 14.7774 49.3035 17.8422 51.48C20.907 53.6566 24.4487 55.067 28.1708 55.593C31.8928 56.1191 35.6867 55.7455 39.2346 54.5036C42.7826 53.2617 45.9813 51.1877 48.5627 48.4552C51.1441 45.7227 53.0332 42.4114 54.0715 38.7986C55.1099 35.1859 55.2673 31.3769 54.5307 27.6907C53.7941 24.0046 52.1848 20.5487 49.8377 17.6125Z" fill="#1F1F1F"/>
</svg>
