<svg width="50" height="49" viewBox="0 0 50 49" fill="none" xmlns="http://www.w3.org/2000/svg">
<path d="M7.76416 0.115234C5.96674 2.0863 4.45586 4.3954 3.28029 6.95068L15.6197 18.582L14.2822 20.0141L2.47571 8.88548C1.51395 11.4352 0.866458 14.1889 0.575626 17.0678L12.7317 23.24L11.8488 24.9939L0.42524 19.1931C0.324458 21.7631 0.506555 24.4136 0.99424 27.0928L11.515 27.9666L11.3549 29.9243L1.41599 29.0998C1.49375 29.4246 1.57454 29.7499 1.66141 30.0753C2.12502 31.8107 2.70166 33.4746 3.3751 35.0616C4.29155 34.8918 5.23877 34.7174 6.28583 34.5195C9.08573 33.9905 11.8422 33.4621 11.8422 33.4621L12.2085 35.3901C12.2085 35.3901 9.44898 35.9213 6.64552 36.4511C5.80704 36.6096 4.99231 36.7632 4.21882 36.9077C5.12407 38.7479 6.16747 40.4696 7.32253 42.0582L13.69 38.4549L14.6485 40.1661L8.53598 43.6283C9.81296 45.1829 11.2028 46.591 12.6828 47.8328L14.4783 45.6944C14.6227 43.5357 14.9977 41.7291 15.9827 40.258C16.646 39.2673 17.5985 38.4894 18.8246 37.9522C17.9597 36.6044 17.2732 35.0808 16.8232 33.3963C15.303 27.7045 16.8839 21.9927 20.6332 18.8809L7.76395 0.115234H7.76416ZM42.388 0.115234L29.5191 18.8809C33.2684 21.9927 34.8526 27.7044 33.3323 33.3963C32.8865 35.0652 32.2054 36.5746 31.3504 37.913C32.6424 38.4789 33.6061 39.3322 34.2284 40.3994C35.0457 41.8009 35.3267 43.4599 35.4222 45.3888L37.4725 47.8326C38.9523 46.5909 40.3425 45.1829 41.6194 43.6281L35.5038 40.1661L36.4654 38.4549L42.8327 42.0582C43.9881 40.4692 45.031 38.7482 45.9365 36.9077C45.1621 36.7632 44.345 36.6096 43.5064 36.4511C40.7031 35.9213 37.9435 35.3901 37.9435 35.3901L38.3098 33.462C38.3098 33.462 41.0697 33.9904 43.8695 34.5194C44.8394 34.7029 45.8097 34.8847 46.7802 35.0649C47.4674 33.4442 48.0401 31.7769 48.4939 30.0753C48.5808 29.7499 48.6616 29.4246 48.7392 29.0998L38.8004 29.924L38.6403 27.9663L49.1611 27.0928C49.6488 24.4135 49.8277 21.7631 49.7268 19.193L38.3033 24.9937L37.4202 23.2397L49.5797 17.0677C49.2884 14.1877 48.6424 11.4327 47.6796 8.88212L35.8732 20.014L34.5326 18.582L46.8717 6.95068C45.6958 4.3954 44.1854 2.0864 42.3879 0.115234H42.388ZM24.8914 27.5558C23.7976 27.5558 22.7804 28.1173 21.9842 29.1458C21.1877 30.1742 20.6595 31.6574 20.6595 33.3175C20.6595 34.9775 21.1876 36.4606 21.9839 37.489C22.7804 38.5176 23.7976 39.0823 24.8914 39.0823C25.9853 39.0823 26.9991 38.5176 27.7956 37.4892C28.592 36.4608 29.12 34.9777 29.12 33.3177C29.12 31.6576 28.5919 30.1744 27.7956 29.146C26.9991 28.1176 25.9853 27.5561 24.8914 27.5561V27.5558ZM29.0383 39.2433C27.9541 40.4142 26.5019 41.1712 24.8913 41.1712C23.326 41.1712 21.9097 40.4567 20.836 39.3416C20.5574 39.411 20.2973 39.4871 20.0576 39.5716C18.8578 39.9942 18.1332 40.566 17.6048 41.3554C16.6431 42.7912 16.3969 45.2498 16.3587 48.6342H33.5022C33.4881 45.3179 33.3814 42.8331 32.5406 41.3913C32.0781 40.5977 31.4317 40.0306 30.2841 39.5979C29.9213 39.4611 29.5062 39.3418 29.0381 39.2432L29.0383 39.2433Z" fill="#1F1F1F"/>
</svg>
