<svg width="54" height="51" viewBox="0 0 54 51" fill="none" xmlns="http://www.w3.org/2000/svg">
<path d="M5.99707 50.3433C4.5595 50.3433 3.32928 49.8318 2.30643 48.809C1.28183 47.7844 0.769531 46.5533 0.769531 45.1157V16.3643C0.769531 14.9267 1.28183 13.6965 2.30643 12.6736C3.32928 11.649 4.5595 11.1367 5.99707 11.1367H16.4522V5.90918C16.4522 4.47161 16.9645 3.24052 17.989 2.21592C19.0119 1.19307 20.2421 0.681641 21.6797 0.681641H32.1348C33.5723 0.681641 34.8034 1.19307 35.828 2.21592C36.8509 3.24052 37.3623 4.47161 37.3623 5.90918V11.1367H47.8174C49.255 11.1367 50.486 11.649 51.5106 12.6736C52.5335 13.6965 53.0449 14.9267 53.0449 16.3643V45.1157C53.0449 46.5533 52.5335 47.7844 51.5106 48.809C50.486 49.8318 49.255 50.3433 47.8174 50.3433H5.99707ZM21.6797 11.1367H32.1348V5.90918H21.6797V11.1367Z" fill="#1F1F1F"/>
</svg>
