<svg width="53" height="53" viewBox="0 0 53 53" fill="none" xmlns="http://www.w3.org/2000/svg">
<path d="M26.7002 0.624023C12.2879 0.624023 0.5625 12.3494 0.5625 26.7617V37.5906C0.5625 40.2671 2.90705 42.4443 5.79004 42.4443H8.40381C9.09702 42.4443 9.76185 42.169 10.252 41.6788C10.7422 41.1886 11.0176 40.5238 11.0176 39.8306V26.388C11.0176 25.6947 10.7422 25.0299 10.252 24.5397C9.76185 24.0496 9.09702 23.7742 8.40381 23.7742H6.03051C7.48376 13.6589 16.1876 5.85156 26.7002 5.85156C37.2128 5.85156 45.9166 13.6589 47.3699 23.7742H44.9966C44.3034 23.7742 43.6385 24.0496 43.1484 24.5397C42.6582 25.0299 42.3828 25.6947 42.3828 26.388V42.4443C42.3828 45.3273 40.0383 47.6719 37.1553 47.6719H31.9277V45.0581H21.4727V52.8994H37.1553C42.9213 52.8994 47.6104 48.2103 47.6104 42.4443C50.4933 42.4443 52.8379 40.2671 52.8379 37.5906V26.7617C52.8379 12.3494 41.1125 0.624023 26.7002 0.624023Z" fill="#1F1F1F"/>
</svg>
