<svg width="73" height="74" viewBox="0 0 73 74" fill="none" xmlns="http://www.w3.org/2000/svg">
<path d="M69.1743 1.82699L71.1764 3.83463C73.9352 6.60449 73.5178 11.5147 70.2364 14.8018L28.949 56.2034L15.5723 61.1103C13.8925 61.7296 12.2569 60.9265 11.9244 59.3238C11.812 58.7424 11.8649 58.1411 12.0771 57.5884L17.0654 44.0589L58.2374 2.76956C61.5188 -0.517529 66.4154 -0.939474 69.1743 1.83039V1.82699ZM27.1471 5.94435C27.5927 5.94435 28.034 6.03237 28.4457 6.20338C28.8574 6.37438 29.2315 6.62503 29.5466 6.94101C29.8617 7.25698 30.1117 7.6321 30.2822 8.04495C30.4527 8.45779 30.5405 8.90028 30.5405 9.34714C30.5405 9.794 30.4527 10.2365 30.2822 10.6493C30.1117 11.0622 29.8617 11.4373 29.5466 11.7533C29.2315 12.0692 28.8574 12.3199 28.4457 12.4909C28.034 12.6619 27.5927 12.7499 27.1471 12.7499H13.5736C11.7736 12.7499 10.0473 13.4669 8.77458 14.7432C7.50181 16.0195 6.78678 17.7505 6.78678 19.5555V60.3889C6.78678 62.1938 7.50181 63.9248 8.77458 65.2011C10.0473 66.4774 11.7736 67.1944 13.5736 67.1944H54.2942C56.0942 67.1944 57.8205 66.4774 59.0932 65.2011C60.366 63.9248 61.081 62.1938 61.081 60.3889V46.7777C61.081 45.8753 61.4385 45.0098 62.0749 44.3716C62.7113 43.7335 63.5744 43.375 64.4744 43.375C65.3744 43.375 66.2375 43.7335 66.8739 44.3716C67.5103 45.0098 67.8678 45.8753 67.8678 46.7777V60.3889C67.8678 63.9988 66.4377 67.4608 63.8922 70.0134C61.3467 72.566 57.8942 74 54.2942 74H13.5736C9.97363 74 6.52114 72.566 3.9756 70.0134C1.43007 67.4608 0 63.9988 0 60.3889V19.5555C0 15.9456 1.43007 12.4835 3.9756 9.93096C6.52114 7.37838 9.97363 5.94435 13.5736 5.94435H27.1471Z" fill="black"/>
</svg>
