<svg width="73" height="70" viewBox="0 0 73 70" fill="none" xmlns="http://www.w3.org/2000/svg">
<path d="M10.6945 0C7.29992 3.40402 4.60763 7.44906 2.77232 11.9027C0.937014 16.3563 -0.00513094 21.1308 2.10156e-05 25.9518C2.10156e-05 36.0829 4.08802 45.2596 10.6945 51.9035L15.841 46.7278C13.1202 44.0062 10.964 40.7681 9.49784 37.2016C8.03164 33.635 7.28457 29.8111 7.30002 25.9518C7.30002 17.8395 10.5485 10.4615 15.841 5.17567L10.6945 0ZM62.3055 0L57.159 5.17567C59.8771 7.89938 62.0314 11.1379 63.4974 14.7039C64.9634 18.27 65.712 22.093 65.7 25.9518C65.7 34.1007 62.4515 41.4421 57.159 46.7278L62.3055 51.9035C65.7001 48.4995 68.3924 44.4545 70.2277 40.0008C72.063 35.5472 73.0051 30.7727 73 25.9518C73 15.8207 68.912 6.64394 62.3055 0ZM21.024 10.388C18.9866 12.4288 17.3702 14.8543 16.2678 17.5253C15.1653 20.1962 14.5986 23.0599 14.6 25.9518C14.6 32.0084 17.0455 37.5144 21.024 41.5155L26.1705 36.3398C24.8135 34.9764 23.7377 33.3569 23.0048 31.5742C22.272 29.7915 21.8965 27.8808 21.9 25.9518C21.9 21.8773 23.5425 18.2066 26.1705 15.5637L21.024 10.388ZM51.976 10.388L46.8295 15.5637C48.1865 16.9271 49.2623 18.5466 49.9952 20.3293C50.728 22.112 51.1035 24.0227 51.1 25.9518C51.1 30.0262 49.4575 33.6969 46.8295 36.3398L51.976 41.5155C54.0134 39.4747 55.6298 37.0492 56.7322 34.3783C57.8347 31.7073 58.4014 28.8436 58.4 25.9518C58.4 19.8951 55.9545 14.3891 51.976 10.388ZM36.5 18.6104C34.5639 18.6104 32.7071 19.3838 31.3381 20.7606C29.9691 22.1374 29.2 24.0047 29.2 25.9518C29.2 27.8988 29.9691 29.7661 31.3381 31.1429C32.7071 32.5197 34.5639 33.2931 36.5 33.2931C38.4361 33.2931 40.2929 32.5197 41.6619 31.1429C43.0309 29.7661 43.8 27.8988 43.8 25.9518C43.8 24.0047 43.0309 22.1374 41.6619 20.7606C40.2929 19.3838 38.4361 18.6104 36.5 18.6104ZM32.85 40.6345V55.3173H29.2C28.232 55.3173 27.3036 55.704 26.6191 56.3924C25.9346 57.0808 25.55 58.0144 25.55 58.9879H2.10156e-05V66.3293H25.55C25.55 67.3028 25.9346 68.2365 26.6191 68.9249C27.3036 69.6133 28.232 70 29.2 70H43.8C44.768 70 45.6964 69.6133 46.3809 68.9249C47.0654 68.2365 47.45 67.3028 47.45 66.3293H73V58.9879H47.45C47.45 58.0144 47.0654 57.0808 46.3809 56.3924C45.6964 55.704 44.768 55.3173 43.8 55.3173H40.15V40.6345H32.85Z" fill="black"/>
</svg>
