<svg width="73" height="73" viewBox="0 0 73 73" fill="none" xmlns="http://www.w3.org/2000/svg">
<path d="M53.6883 34.5104L60.0546 28.1428L44.8484 12.9335L38.482 19.3011L21.6943 2.55066C18.5314 -0.612867 13.3815 -0.612867 10.2186 2.55066L2.5141 10.2567C-0.648801 13.4202 -0.648801 18.5711 2.5141 21.7346L19.2613 38.4851L0 57.7907V73H15.2063L34.5081 53.6944L51.2553 70.4448C55.1075 74.2979 60.2979 72.8783 62.7309 70.4448L70.4354 62.7388C73.5983 59.5753 73.5983 54.4244 70.4354 51.2609L53.6883 34.5104ZM25.0599 32.7258L8.27221 15.9754L15.9362 8.26935L21.086 13.4202L16.3011 18.2466L22.0187 23.9653L26.8441 19.1389L32.7239 25.0198L25.0599 32.7258ZM57.0134 64.7262L40.2662 47.9757L47.9707 40.2696L53.8505 46.1506L49.025 50.977L54.7426 56.6957L59.568 51.8693L64.7179 57.0201L57.0134 64.7262ZM71.8141 16.381C72.19 16.0057 72.4883 15.5601 72.6918 15.0694C72.8953 14.5788 73 14.0528 73 13.5216C73 12.9904 72.8953 12.4645 72.6918 11.9738C72.4883 11.4832 72.19 11.0375 71.8141 10.6623L62.3254 1.17169C60.4196 -0.734542 57.7838 -0.00449729 56.6079 1.17169L49.1872 8.59381L64.3935 23.8031L71.8141 16.381Z" fill="black"/>
</svg>
