<svg width="72" height="67" viewBox="0 0 72 67" fill="none" xmlns="http://www.w3.org/2000/svg">
<path d="M0 31.3061C0 27.0595 1.68569 22.9868 4.68626 19.984C7.68682 16.9812 11.7565 15.2943 15.9999 15.2943H29.3331C29.4998 15.2943 46.7997 15.0607 63.2329 1.25057C64.0119 0.59267 64.9639 0.173524 65.9749 0.0433613C66.9859 -0.0868018 68.0129 0.0775403 68.9329 0.516691C69.8582 0.937763 70.641 1.61941 71.1856 2.47837C71.7302 3.33733 72.013 4.33641 71.9995 5.35359V57.2585C72.013 58.2757 71.7302 59.2748 71.1856 60.1337C70.641 60.9927 69.8582 61.6743 68.9329 62.0954C68.2218 62.4227 67.4489 62.5933 66.6662 62.5958C65.4119 62.6039 64.1954 62.1666 63.2329 61.3615C50.5997 50.7537 37.4998 48.1518 31.9998 47.518V59.2266C32.0029 60.1044 31.7884 60.9692 31.3753 61.7435C30.9623 62.5178 30.3637 63.1774 29.6331 63.6632L25.9665 66.1317C25.2445 66.5888 24.4277 66.8746 23.5784 66.9671C22.729 67.0596 21.8698 66.9564 21.0665 66.6655C20.2689 66.3553 19.5582 65.8565 18.9952 65.2117C18.4321 64.5669 18.0334 63.7953 17.8332 62.9627L13.8666 47.1844C10.0314 46.6539 6.51663 44.7553 3.96887 41.8379C1.42111 38.9205 0.0117264 35.1806 0 31.3061ZM22.9999 61.6618L26.6665 59.2266V47.3179H19.3999L22.9999 61.6618ZM15.9999 41.9806H26.6665V20.6315H15.9999C13.1709 20.6315 10.4578 21.7562 8.45747 23.758C6.4571 25.7599 5.3333 28.475 5.3333 31.3061C5.3333 34.1371 6.4571 36.8522 8.45747 38.8541C10.4578 40.8559 13.1709 41.9806 15.9999 41.9806Z" fill="black"/>
</svg>
