<svg width="53" height="54" viewBox="0 0 53 54" fill="none" xmlns="http://www.w3.org/2000/svg">
<path d="M17.0364 11.0029H12.3316C16.2522 7.60503 20.957 5.77539 26.1846 5.77539C26.9687 5.77539 27.7528 5.77539 28.537 6.03677C29.8438 6.29814 31.1507 5.25264 31.4121 3.68438C31.6735 2.37749 30.628 1.07061 29.0597 0.809228C28.0142 0.547851 27.2301 0.547852 26.1846 0.547852C19.9115 0.547852 13.8999 2.90024 9.19507 6.8209V3.16162C9.19507 1.59336 8.14956 0.547852 6.5813 0.547852C5.01304 0.547852 3.96753 1.59336 3.96753 3.16162V13.6167C3.96753 15.185 5.01304 16.2305 6.5813 16.2305H17.0364C18.6046 16.2305 19.6501 15.185 19.6501 13.6167C19.6501 12.0484 18.6046 11.0029 17.0364 11.0029ZM13.1157 33.22C11.5475 33.22 10.502 34.2655 10.502 35.8337V40.5385C7.10405 36.6179 5.27441 31.9131 5.27441 26.6855C5.27441 25.9014 5.27441 25.1173 5.53579 24.3332C5.79717 23.0263 4.75166 21.7194 3.1834 21.458C1.87651 21.1966 0.569629 22.2421 0.308252 23.8104C0.0468747 24.8559 0.046875 25.64 0.046875 26.6855C0.046875 32.9586 2.39927 38.9703 6.31992 43.675H2.66064C1.09238 43.675 0.046875 44.7206 0.046875 46.2888C0.046875 47.8571 1.09238 48.9026 2.66064 48.9026H13.1157C13.8999 48.9026 14.684 48.3798 15.2067 47.8571C15.2067 47.5957 15.4681 47.3343 15.4681 47.0729V35.8337C15.7295 34.2655 14.684 33.22 13.1157 33.22ZM49.7085 9.69604C51.2768 9.69604 52.3223 8.65054 52.3223 7.08228C52.3223 5.51401 51.2768 4.46851 49.7085 4.46851H38.7307C38.4693 4.46851 38.2079 4.72988 37.9465 4.72988C37.6852 4.99126 37.4238 4.99126 37.4238 5.25264C37.4238 5.51401 37.1624 5.77539 37.1624 5.77539V17.0146C37.1624 18.5829 38.2079 19.6284 39.7762 19.6284C41.3444 19.6284 42.3899 18.5829 42.3899 17.0146V12.8326C45.7878 16.4918 47.6175 21.458 47.6175 26.6855C47.6175 27.4697 47.6175 28.2538 47.3561 29.0379C47.0947 30.3448 48.1402 31.6517 49.7085 31.9131H49.9699C51.2768 31.9131 52.3223 30.8676 52.5836 29.5607C52.5836 28.5152 52.845 27.7311 52.845 26.6855C52.845 20.4125 50.4926 14.4008 46.572 9.69604H49.7085ZM47.8789 38.4475L47.0947 37.6634C46.8334 37.402 46.572 37.402 46.3106 37.402H35.3328C33.7645 37.402 32.719 38.4475 32.719 40.0158C32.719 41.584 33.7645 42.6295 35.3328 42.6295H40.0376C36.3783 46.0274 31.4121 47.8571 26.1846 47.8571C25.4004 47.8571 24.6163 47.8571 23.8322 47.5957C22.5253 47.3343 21.2184 48.3798 20.957 49.9481C20.6957 51.5164 21.7412 52.5619 23.3094 52.8232C24.3549 52.8232 25.1391 53.0846 26.1846 53.0846C32.4576 53.0846 38.4693 50.7322 43.1741 46.8116V50.2095C43.1741 51.7777 44.2196 52.8232 45.7878 52.8232C47.3561 52.8232 48.4016 51.7777 48.4016 50.2095V39.7544C48.4016 39.2316 48.1402 38.7089 47.8789 38.4475Z" fill="#1F1F1F"/>
</svg>
