<svg width="64" height="92" viewBox="0 0 64 92" fill="none" xmlns="http://www.w3.org/2000/svg">
<path d="M2.42904 25.0909V8.36364C2.42904 6.06364 3.25703 4.094 4.913 2.45473C6.56616 0.818242 8.55445 0 10.8779 0H53.1221C55.4455 0 57.4352 0.818242 59.0912 2.45473C60.7444 4.094 61.571 6.06364 61.571 8.36364V25.0909H53.1221V20.9091H10.8779V25.0909H2.42904ZM10.8779 92C8.55445 92 6.56616 91.1818 4.913 89.5453C3.25703 87.906 2.42904 85.9364 2.42904 83.6364V66.9091H10.8779V71.0909H53.1221V66.9091H61.571V83.6364C61.571 85.9364 60.7444 87.906 59.0912 89.5453C57.4352 91.1818 55.4455 92 53.1221 92H10.8779ZM43.4059 62.1C42.6315 61.2636 42.2273 60.2879 42.1935 59.1727C42.1569 58.0576 42.5611 57.0818 43.4059 56.2455L53.7558 46L43.4059 35.7545C42.5611 34.9182 42.1569 33.9424 42.1935 32.8273C42.2273 31.7121 42.6315 30.7364 43.4059 29.9C44.2508 29.0636 45.2548 28.6273 46.418 28.5911C47.5783 28.5576 48.5809 28.9591 49.4257 29.7955L62.8383 43.0727C63.2607 43.4909 63.5607 43.9439 63.7381 44.4318C63.9127 44.9197 64 45.4424 64 46C64 46.5576 63.9127 47.0803 63.7381 47.5682C63.5607 48.0561 63.2607 48.5091 62.8383 48.9273L49.4257 62.2045C48.5809 63.0409 47.5783 63.4424 46.418 63.4089C45.2548 63.3727 44.2508 62.9364 43.4059 62.1ZM14.5743 62.2045L1.16171 48.9273C0.739272 48.5091 0.439339 48.0561 0.261913 47.5682C0.0873039 47.0803 0 46.5576 0 46C0 45.4424 0.0873039 44.9197 0.261913 44.4318C0.439339 43.9439 0.739272 43.4909 1.16171 43.0727L14.5743 29.7955C15.4191 28.9591 16.4231 28.5576 17.5863 28.5911C18.7466 28.6273 19.7492 29.0636 20.5941 29.9C21.3685 30.7364 21.7741 31.7121 21.8107 32.8273C21.8445 33.9424 21.4389 34.9182 20.5941 35.7545L10.2442 46L20.5941 56.2455C21.4389 57.0818 21.8445 58.0576 21.8107 59.1727C21.7741 60.2879 21.3685 61.2636 20.5941 62.1C19.7492 62.9364 18.7466 63.3727 17.5863 63.4089C16.4231 63.4424 15.4191 63.0409 14.5743 62.2045Z" fill="black"/>
</svg>
