<svg width="73" height="66" viewBox="0 0 73 66" fill="none" xmlns="http://www.w3.org/2000/svg">
<path d="M7.3 66C5.2925 66 3.57457 65.2826 2.1462 63.8477C0.7154 62.4103 0 60.6833 0 58.6667V7.33333C0 5.31667 0.7154 3.58967 2.1462 2.15233C3.57457 0.717444 5.2925 0 7.3 0H58.4C60.4075 0 62.1267 0.717444 63.5575 2.15233C64.9858 3.58967 65.7 5.31667 65.7 7.33333V14.6667H73V22H65.7V29.3333H73V36.6667H65.7V44H73V51.3333H65.7V58.6667C65.7 60.6833 64.9858 62.4103 63.5575 63.8477C62.1267 65.2826 60.4075 66 58.4 66H7.3ZM7.3 58.6667H58.4V7.33333H7.3V58.6667ZM14.6 51.3333H32.85V36.6667H14.6V51.3333ZM36.5 25.6667H51.1V14.6667H36.5V25.6667ZM14.6 33H32.85V14.6667H14.6V33ZM36.5 51.3333H51.1V29.3333H36.5V51.3333ZM7.3 7.33333V58.6667V7.33333Z" fill="black"/>
</svg>
