<svg width="102" height="56" viewBox="0 0 102 56" fill="none" xmlns="http://www.w3.org/2000/svg">
<path d="M28.3929 46.7478V52.8152H0.75V0.75H38.7222L68.7009 11.8996C73.2743 13.7382 76.9643 18.8193 76.9643 24.3478V25.0978H77.7143H87.4286C95.2697 25.0978 101.25 31.0907 101.25 38.9565V43.2751L63.128 55.2187L29.3398 46.0241L28.3929 45.7665V46.7478ZM19.4286 44.5761H20.1786V43.8261V9.73913V8.98913H19.4286H9.71429H8.96429V9.73913V43.8261V44.5761H9.71429H19.4286ZM92.0194 37.7259L92.8666 37.4668L92.4712 36.674C91.9412 35.6112 91.2557 34.7689 90.3953 34.1938C89.5302 33.6156 88.5316 33.337 87.4286 33.337H61.2C58.8675 33.337 56.0388 32.8701 53.6266 32.3878L43.1911 28.7488L45.6575 20.9184L56.5909 24.5722L56.7066 24.6109H56.8286C57.5345 24.6109 60.3025 24.7312 62.9258 24.8535C64.2304 24.9144 65.4896 24.9752 66.4227 25.0208C66.8893 25.0437 67.2743 25.0627 67.5426 25.076L67.8532 25.0914L67.9346 25.0955L67.9555 25.0965L67.9607 25.0968L67.962 25.0969L67.9624 25.0969C67.9624 25.0969 67.9625 25.0969 68 24.3478L67.9625 25.0969L68.75 25.1364V24.3478C68.75 23.2503 68.4756 22.2348 67.8785 21.4118C67.2853 20.594 66.4128 20.021 65.3124 19.736L37.1809 9.03811L37.0521 8.98913H36.9143H29.1429H28.3929V9.73913V36.5217V37.0949L28.9459 37.2454L62.9459 46.4976L63.155 46.5545L63.3622 46.4911L92.0194 37.7259Z" fill="#D9D9D9" stroke="#463AD5" stroke-width="1.5"/>
</svg>
