<svg width="95" height="95" viewBox="0 0 95 95" fill="none" xmlns="http://www.w3.org/2000/svg">
<path d="M45.6366 52.7431L45.6299 52.7391L45.6232 52.7352C44.4994 52.0826 43.8367 50.8813 43.8367 49.59V27.17C43.8367 25.8702 44.8702 24.8367 46.17 24.8367H46.455C47.7548 24.8367 48.7883 25.8702 48.7883 27.17V48.735V49.3533L49.3198 49.6692L67.7023 60.5942L67.7094 60.5984L67.7166 60.6026C67.9826 60.7552 68.2152 60.9599 68.4005 61.2043C68.5858 61.4488 68.72 61.728 68.7951 62.0254C68.8702 62.3228 68.8847 62.6323 68.8377 62.9354C68.7906 63.2385 68.6831 63.5291 68.5215 63.7898L68.5148 63.8006L68.5083 63.8115C67.8825 64.8754 66.4749 65.2303 65.3446 64.5679C65.3434 64.5672 65.3422 64.5665 65.341 64.5658L45.6366 52.7431ZM1.08674 47.5C1.08674 21.8788 21.8341 1.08674 47.4525 1.08674C73.1205 1.08674 93.9133 21.8809 93.9133 47.5C93.9133 73.1191 73.1205 93.9133 47.4525 93.9133C21.8341 93.9133 1.08674 73.1212 1.08674 47.5ZM8.41326 47.5C8.41326 69.0952 25.9048 86.5867 47.5 86.5867C69.0952 86.5867 86.5867 69.0952 86.5867 47.5C86.5867 25.9048 69.0952 8.41326 47.5 8.41326C25.9048 8.41326 8.41326 25.9048 8.41326 47.5Z" fill="#D9D9D9" stroke="#D9D9D9" stroke-width="2.17348"/>
</svg>
