<svg width="63" height="102" viewBox="0 0 63 102" fill="none" xmlns="http://www.w3.org/2000/svg">
<path d="M49.5276 1.42774C50.0703 1.78233 50.4903 2.33387 50.719 2.99226C50.9476 3.65064 50.9714 4.37695 50.7864 5.05253L40.7994 41.6255H59.2263C59.7678 41.6252 60.2975 41.8037 60.7501 42.1389C61.2026 42.474 61.5582 42.9512 61.7728 43.5115C61.9875 44.0719 62.0519 44.6907 61.958 45.2918C61.8642 45.8929 61.6162 46.4498 61.2447 46.8939L16.8827 100.016C16.4535 100.53 15.8823 100.866 15.2622 100.967C14.6422 101.069 14.0099 100.931 13.4683 100.576C12.9268 100.221 12.508 99.6693 12.2801 99.0115C12.0522 98.3537 12.0288 97.6283 12.2136 96.9536L22.2006 60.3744H3.77373C3.23221 60.3746 2.70248 60.1961 2.24993 59.861C1.79738 59.5258 1.44183 59.0486 1.22716 58.4883C1.01249 57.928 0.948108 57.3091 1.04196 56.708C1.1358 56.1069 1.38378 55.55 1.75526 55.1059L46.1173 1.98395C46.546 1.47023 47.1163 1.13506 47.7355 1.03294C48.3546 0.930818 48.9863 1.06776 49.5276 1.42149V1.42774ZM10.1896 54.1247H25.9547C26.3887 54.1246 26.8165 54.2393 27.2039 54.4596C27.5913 54.6798 27.9275 54.9994 28.1853 55.3927C28.4432 55.7861 28.6155 56.2421 28.6884 56.7242C28.7614 57.2062 28.7329 57.7009 28.6054 58.1683L21.0195 85.9354L52.8049 47.8751H37.0452C36.6113 47.8752 36.1835 47.7605 35.7961 47.5403C35.4087 47.32 35.0725 47.0004 34.8147 46.6071C34.5568 46.2138 34.3845 45.7577 34.3116 45.2757C34.2386 44.7936 34.2671 44.299 34.3946 43.8316L41.9805 16.0644L10.1896 54.1247Z" fill="#D9D9D9" stroke="#D9D9D9" stroke-width="0.940325"/>
</svg>
