<svg width="42" height="110" viewBox="0 0 42 110" fill="none" xmlns="http://www.w3.org/2000/svg">
<path d="M3.19072 44.7917C5.27406 47.9167 7.87822 50.5208 11.5241 52.0833H32.3574C33.9199 51.5625 34.9616 50.5208 36.0032 49.4792C41.2116 44.2708 43.2949 36.4583 40.6907 29.6875L40.1699 28.6458C39.6491 27.0833 38.6074 26.0417 37.5657 25C37.0449 23.9583 36.0032 23.4375 35.4824 22.3958C33.3991 20.8333 31.3157 19.2708 29.2324 17.1875C24.5449 12.5 24.0241 5.20833 26.6282 0C24.0241 0.520833 21.4199 2.08333 19.3366 4.16667C11.5241 10.4167 8.39906 21.3542 12.0449 31.25V32.2917C12.0449 32.8125 11.5241 33.3333 11.0032 33.8542C10.4824 34.375 9.44072 33.8542 8.91989 33.3333L8.39906 32.8125C5.27406 28.6458 4.75322 22.3958 6.83655 17.1875C2.14905 21.3542 -0.455114 28.125 0.0657199 34.8958C0.0657199 36.4583 0.586552 38.0208 1.10739 39.5833C1.10739 41.1458 2.14906 43.2292 3.19072 44.7917ZM22.4616 36.9792C22.9824 34.375 21.9407 32.2917 21.4199 30.2083C20.8991 28.125 20.8991 26.0417 21.9407 23.9583L23.5032 27.0833C25.5866 30.2083 29.2324 31.25 30.2741 35.4167V36.9792C30.2741 39.5833 29.2324 42.1875 27.6699 43.75C26.6282 44.2708 25.5866 45.3125 24.5449 45.3125C21.4199 46.3542 17.7741 44.7917 15.6907 42.7083C19.8574 42.7083 21.9407 39.5833 22.4616 36.9792ZM36.5241 57.2917V67.7083H31.3157L26.1074 109.375H15.6907L10.4824 67.7083H5.27405V57.2917H36.5241Z" fill="black"/>
</svg>
