<svg width="53" height="50" viewBox="0 0 53 50" fill="none" xmlns="http://www.w3.org/2000/svg">
<path d="M26.7094 0.539062C23.4277 0.539062 20.5078 2.60625 19.4226 5.70703H3.45355V10.875H8.49232L0.869571 28.9629C-0.344901 34.1308 3.45355 36.7148 9.91351 36.7148C16.3735 36.7148 20.4045 34.1308 18.9574 28.9629L11.3347 10.875H19.3967C20.2494 13.0714 21.929 14.751 24.1254 15.6037V44.4668H0.869571V49.6347H52.5492V44.4668H29.2934V15.5778C31.4898 14.751 33.1694 13.0714 33.9962 10.875H42.0841L34.4613 28.9629C33.2469 34.1308 37.0453 36.7148 43.5053 36.7148C49.9652 36.7148 53.9963 34.1308 52.5492 28.9629L44.9265 10.875H49.9652V5.70703H34.0221C32.911 2.60625 29.9911 0.539062 26.7094 0.539062ZM26.7094 5.70703C27.3947 5.70703 28.052 5.97927 28.5366 6.46386C29.0211 6.94845 29.2934 7.6057 29.2934 8.29101C29.2934 8.97633 29.0211 9.63357 28.5366 10.1182C28.052 10.6028 27.3947 10.875 26.7094 10.875C26.0241 10.875 25.3668 10.6028 24.8822 10.1182C24.3977 9.63357 24.1254 8.97633 24.1254 8.29101C24.1254 7.6057 24.3977 6.94845 24.8822 6.46386C25.3668 5.97927 26.0241 5.70703 26.7094 5.70703ZM9.91351 19.2729L13.7895 28.9629H6.03754L9.91351 19.2729ZM43.5053 19.2729L47.3813 28.9629H39.6293L43.5053 19.2729Z" fill="#1F1F1F"/>
</svg>
