<svg width="484" height="261" viewBox="0 0 484 261" fill="none" xmlns="http://www.w3.org/2000/svg">
<g clip-path="url(#clip0_599_1576)">
<path d="M57.76 74.5103C58.33 74.3903 58.92 74.0903 59.33 73.7603C62.08 72.4103 64.46 71.0103 67.19 69.8403C71.32 67.7203 74.79 64.9603 77.76 61.6003C78.37 61.1103 78.64 60.4003 79.04 60.0803C81.22 58.8503 82.54 56.9603 83.53 54.8503C84 53.9803 84.84 53.1503 85.29 52.4603C85.94 51.6103 86.57 50.9403 86.84 50.2303C87.78 48.4803 88.36 46.7003 89.13 44.7503C90.62 41.4003 91.22 37.7603 91.09 34.0403C91.2 31.4603 91.13 28.8603 91.03 26.4403C91.03 24.7703 91.24 22.9403 90.86 21.4203C90.08 18.5503 89.68 15.5403 87.12 13.5803C86.94 13.5603 86.78 13.3603 86.8 13.1703C84.61 9.59027 81.57 7.02027 78.55 4.26027C75.32 1.67027 71.73 0.700269 67.73 0.0602693C66.81 -0.0397307 65.88 0.0302694 64.95 0.110269C63.49 -0.0597306 62 -0.0397306 60.68 0.180269C58.44 0.300269 56.37 0.610269 54.23 1.48027C53.64 1.78027 53.09 1.72027 52.54 1.66027C50.87 1.66027 49.51 2.24027 48.47 3.23027L44.56 6.67027C40.5 11.3903 36.97 16.3603 34.29 21.9903L33.35 23.7403C31.91 21.7203 30.8 20.1103 29.48 18.6703C27.98 17.2003 26.28 15.9003 25.16 14.2903C23.42 11.6803 19.91 9.99027 16.43 9.59027C14.6 9.38027 12.73 9.54027 11 10.0803C9.08998 10.6003 8.61998 11.4803 8.58998 13.3203C8.41998 14.7803 8.43999 16.2703 8.26999 17.7303C7.97999 20.2903 7.49998 22.8303 7.20998 25.3903C6.78998 29.0503 6.37998 32.7003 6.13998 36.3803C5.75998 41.3403 5.19998 46.2803 5.01998 51.0703C4.75998 56.6003 4.69999 61.9603 4.64998 67.3303L4.09998 80.2403L3.28998 92.1903C3.11998 95.3203 2.57998 98.4103 2.40998 101.54C2.02998 106.5 2.00998 111.5 1.65998 116.27C1.62998 119.79 1.20998 123.44 1.17998 126.96C0.899985 131 0.809985 135.07 0.719985 139.13C0.419985 145.02 0.119985 150.92 0.0199846 156.65C-0.100015 157.75 0.159985 158.7 0.599985 159.68C0.839985 160.82 1.46998 161.82 1.72998 162.77C2.40998 164.89 3.54998 166.31 5.47998 167.27C6.18998 167.54 6.48998 168.13 6.99998 168.55C8.35998 169.63 10.53 170.07 11.59 168.89C12.45 167.88 13.2 167.78 14.28 168.08C14.81 168.33 15.2 168.18 15.74 168.25C16.47 168.33 17.06 168.03 17.17 167.12C17.09 166.18 17.68 165.88 18.62 165.8C19.17 165.86 19.74 165.74 20.1 165.78C21.77 165.78 23.13 165.2 24.21 163.84C25.47 162.5 26.53 161.33 27.96 160.19C29.16 159.4 30.2 158.41 30.55 156.97C31.08 155.55 31.61 154.13 31.94 152.87C32.62 150.17 33.48 147.49 33.79 144.74C34.37 141.29 34.74 138 34.96 134.5C35.21 132.31 35.12 129.89 35.37 127.69L35.74 119.58C35.99 117.39 35.87 115.15 35.94 112.93L36.74 102.65L37.14 92.6903C37.06 91.7503 37.17 90.8403 37.45 89.9503C37.62 88.4903 37.97 87.0503 38.3 85.7903C38.45 84.5103 38.78 83.2503 39.1 81.9903C39.2 81.0703 39.79 80.7703 40.55 80.6703C41.48 80.5903 42.42 80.5103 43.19 80.2303L48.54 78.8003C50.09 78.2403 51.61 77.8503 52.85 76.7003C54.11 75.3603 55.7 74.4303 57.74 74.4803L57.76 74.5103ZM50.14 68.2703C47.48 68.8903 44.77 69.8803 42.27 70.7103C41.5 70.9903 40.95 70.9303 39.83 70.9903L40.46 65.5003C40.56 64.5903 40.46 63.8303 40 63.0403C39.7 62.4503 39.6 61.7003 39.5 60.9403L40.33 53.6203C40.54 51.7903 40.38 49.9203 40.59 48.0903C40.88 45.5303 41.19 42.7903 41.32 40.0203C41.43 37.4403 42.25 35.1203 42.89 32.7903C43.34 30.4303 43.59 28.2403 44.21 26.0903C45.28 21.5803 46.88 17.3203 51.42 14.8703L53.44 13.4303C56.39 11.9103 59.26 12.8003 61.14 15.7903C63.81 19.9803 64.57 24.7003 64.58 29.5203C64.65 32.1203 64.54 34.7003 64.23 37.4503C63.98 39.6403 63.55 41.8203 63.3 44.0103C62.64 48.1903 61.08 52.0903 59.52 55.9903C58.27 58.8103 56.68 61.4103 55.09 64.0103C53.95 65.9203 52.46 67.6003 50.16 68.2603L50.14 68.2703Z" fill="#0499CB"/>
<path d="M482.44 82.2197C481.52 82.7697 481.15 83.8797 480.42 84.6097C479.68 85.1597 478.95 86.2697 478.03 86.8197C477.11 87.3697 473.98 90.3197 473.06 90.8697C472.69 91.0497 471.22 93.8197 471.04 93.9997C470.86 94.3697 468.28 99.7097 468.28 99.8897C468.28 100.26 465.33 106.52 464.97 106.7C462.39 110.57 460.55 114.8 457.79 119.03C455.58 122.9 453 126.21 449.87 129.71C447.11 133.02 441.4 139.1 436.43 138.18C432.2 137.44 427.04 126.58 429.99 123.27C432.38 120.51 434.78 117.75 436.98 114.8C439.19 111.67 441.95 108.73 443.24 104.68L443.98 101.74L446.56 95.1097C447.85 92.5297 448.03 89.5897 448.03 86.6397C448.21 84.0597 447.48 81.4897 446.74 78.9097C446.37 77.2497 445.64 75.4097 443.61 74.6797C443.43 74.6797 443.06 74.4997 442.87 74.1297C441.4 71.9197 439.01 70.9997 436.43 70.2697C432.75 69.1697 429.44 69.8997 426.31 71.1897C424.65 71.7397 423.36 72.6597 421.89 73.3997C416.37 76.1597 412.32 80.3897 409.37 85.7297C406.79 90.3297 406.24 95.6697 404.22 100.46V100.64C403.48 103.95 403.3 107.27 403.3 110.58C403.3 113.16 403.48 115.73 403.48 118.31C403.85 126.04 407.53 139.29 414.34 143.89C416.92 145.55 419.13 146.84 421.89 148.12C422.63 148.49 423.55 148.86 424.1 148.86C428.33 149.6 432.75 149.96 436.98 149.41C441.4 148.86 445.45 147.39 449.13 144.62C456.12 139.47 460.54 131.74 464.41 124.56C466.8 120.51 472.88 107.63 475.64 100.45C475.82 99.5297 476.74 98.0597 477.3 96.9497C477.85 95.1097 478.22 94.7397 479.32 92.7197C480.42 90.5097 480.98 87.9297 482.63 84.7997L483.92 81.1197C483.18 81.2997 482.63 81.8597 482.45 82.2197H482.44ZM427.96 108.36L428.33 94.3697L429.07 86.0897C429.44 82.7797 431.09 77.2497 434.96 76.6997C435.33 76.6997 436.06 77.0697 436.25 77.2497C438.64 80.1997 439.75 83.5097 439.2 87.3697C438.83 89.2097 438.83 91.0497 438.46 92.8897C438.09 95.6497 436.99 98.0397 435.7 100.44C433.86 103.75 431.83 106.7 429.44 109.64C429.26 110.01 428.89 110.38 428.15 111.11C428.15 109.82 427.97 109.09 427.97 108.35L427.96 108.36Z" fill="#0499CB"/>
<path d="M406.79 80.9302C406.05 81.1102 405.5 81.6702 405.32 82.2202C404.4 82.9602 403.85 84.0602 403.3 84.6102C402.56 85.3502 401.83 86.4502 400.91 86.8202C399.99 87.5602 399.62 88.4802 398.7 89.9502C397.78 91.2402 397.41 91.2402 396.68 91.4202C396.31 91.6002 395.58 92.8902 394.66 93.6302L387.11 110.93C383.98 118.11 380.12 125.66 375.14 131.73C368.15 140.2 363.91 123.63 362.07 118.85C359.68 112.59 357.1 101.73 356.92 95.2902C356.92 94.3702 356.92 93.4502 357.29 92.7102C358.76 89.4002 360.6 86.2702 362.08 82.9502C363.18 80.9302 364.1 78.9002 364.66 76.5102C365.21 73.5602 365.58 70.6202 366.5 67.6702C367.6 64.3602 368.34 60.8602 369.08 57.5502C369.82 54.4202 370.92 51.2902 371.47 48.1602C372.02 45.7702 372.39 43.3702 372.39 40.9802C372.21 38.7702 372.39 36.7502 372.76 34.5402C372.94 32.7002 373.86 30.8602 374.05 29.0202C374.23 25.8902 373.87 22.7602 373.87 19.6302C373.87 16.8702 372.77 14.2902 373.13 11.5302C373.13 11.1602 372.95 10.7902 372.76 10.4302C369.26 5.2802 367.05 2.7002 362.82 2.7002C361.16 2.7002 358.95 3.0702 356.56 3.9902C350.12 6.0102 346.25 11.3502 343.31 17.0602C341.29 21.2902 339.45 25.7102 338.34 30.3102C336.68 36.9402 335.39 43.5602 334.29 50.0102C333.19 58.2902 332.45 66.5802 332.27 74.8602C332.21 78.2902 332.23 81.7502 332.31 85.2202C332.26 85.2202 332.22 85.2402 332.17 85.2502C331.6 85.3702 330.91 86.5902 329.73 87.1902L328.96 87.4702C328.71 88.0002 328.33 88.1402 328.31 88.3202C328.27 88.6902 328.21 89.2302 327.82 89.3802C326.56 90.7202 325.21 92.7902 323.74 94.2902L323.9 94.4902C321.65 97.9402 319.02 101.53 316.41 104.94C313.59 108.51 310.64 111.69 307.88 114.71L307.68 114.87C308.48 112.74 309.3 110.42 310.28 108.31C311.06 106.36 311.79 99.9602 312.85 98.7802C314.36 96.9102 313.67 94.8002 313.93 92.6002C313.99 92.0502 313.87 91.4802 313.96 90.7502C314.07 86.5002 313.23 82.5202 311.82 78.6502C310.39 74.9702 308.75 71.4402 305.71 68.8702C303.52 66.9502 301.29 65.4002 298.36 65.0702L296.78 64.3302C294.67 63.3502 292.47 63.1002 290.13 64.1302C288.77 64.7202 287.42 65.1202 286.08 65.5202C285.31 65.8002 284.35 66.0602 283.74 66.5502L275.27 72.6202L271.38 75.8802C271.14 74.7402 271 74.3602 271.06 73.8102C270.97 69.7202 270.88 65.6402 271 61.3902C271.07 59.1702 271.52 56.8202 271.61 54.4202C271.75 49.9902 271.49 45.7002 270.85 41.5502C270.53 39.4802 270.03 37.3802 270.44 35.3902C271.2 31.9602 270.6 29.1102 268.49 26.4602C267.84 25.6502 267.4 24.6702 267.32 23.7302C266.68 19.5802 264.09 16.3202 261.09 13.3902C260.58 12.9602 259.94 12.1502 259.45 11.5402C257.53 8.9102 254.82 8.2302 252.06 8.1002C251.51 8.0402 250.74 8.3202 250.31 8.8302C249.68 9.5002 249.21 10.3702 249.08 11.4702C248.75 14.4002 248.21 17.4802 247.88 20.4102L247.8 21.1402C246.87 26.0402 245.94 30.9302 245.38 35.8702C244.36 44.8302 243.52 53.8102 242.68 62.7902C242.16 67.3602 241.98 72.1602 241.64 76.7502C241.47 78.2102 241.47 79.8802 241.12 81.3202C240.99 82.4202 240.67 83.6802 240.54 84.7702C240.18 89.5502 239.48 94.1002 238.95 98.6702C238.7 100.86 238.47 102.88 238.4 105.09C238.27 107.85 238.32 110.64 238.01 113.38C237.86 114.66 237.81 115.94 237.8 117.21C237.64 117.31 237.47 117.38 237.31 117.47C236.8 117.75 236.48 119.11 235.52 120.03L234.86 120.52C234.78 121.1 234.45 121.34 234.48 121.52C234.54 121.88 234.64 122.43 234.31 122.67C233.48 124.31 232.78 126.68 231.81 128.54L232.02 128.69C230.86 132.64 229.36 136.83 227.83 140.84C227.64 141.32 227.44 141.78 227.24 142.26C225.74 142.16 224.23 142.07 222.73 141.99C222.51 139.54 222.25 136.84 222.66 135.97C223.57 133.75 222.31 131.92 221.92 129.74C221.82 129.2 221.54 128.69 221.41 127.96C220.3 123.86 218.36 120.28 215.9 116.98C213.47 113.86 210.9 110.96 207.25 109.36C204.6 108.15 202.02 107.3 199.12 107.82L197.39 107.57C195.09 107.23 192.91 107.62 190.96 109.28C189.82 110.23 188.65 111 187.48 111.77C186.82 112.26 185.98 112.79 185.53 113.43L179.15 121.67L176.35 125.91C175.79 124.89 175.55 124.56 175.45 124.01C174.19 120.12 172.94 116.23 171.83 112.13C171.26 109.99 171.02 107.6 170.42 105.28C169.28 101 167.81 96.9602 166.01 93.1702C165.11 91.2702 164.03 89.4102 163.86 87.3802C163.61 83.8702 162.22 81.3202 159.44 79.3802C158.59 78.7902 157.88 77.9802 157.54 77.1002C155.74 73.3102 152.32 70.9302 148.61 68.9702C148 68.7002 147.15 68.1102 146.51 67.6602C143.91 65.6902 141.13 65.8202 138.45 66.4802C137.91 66.5802 137.25 67.0702 136.98 67.6802C136.57 68.5002 136.37 69.4702 136.56 70.5602C137.08 73.4602 137.45 76.5702 137.96 79.4702L138.09 80.1902C138.6 85.1502 139.11 90.1002 139.99 95.0002C140.55 98.1502 141.14 101.29 141.74 104.43C141.12 105.22 140.42 106.2 140.3 106.3C140.08 106.65 136.91 111.66 136.89 111.84C136.85 112.21 133.21 118.09 132.83 118.23C129.83 121.78 127.52 125.78 124.3 129.67C121.67 133.26 118.73 136.26 115.23 139.38C112.11 142.36 105.75 147.75 100.92 146.27C96.8 145.06 92.91 133.69 96.21 130.73C98.9 128.26 101.59 125.79 104.12 123.11C106.67 120.25 109.75 117.64 111.49 113.76L112.55 110.92L115.86 104.63C117.43 102.22 117.95 99.3102 118.28 96.3802C118.76 93.8402 118.32 91.2002 117.88 88.5502C117.7 86.8602 117.18 84.9502 115.25 83.9902C115.07 83.9702 114.72 83.7402 114.58 83.3602C113.37 81.0002 111.09 79.8102 108.62 78.7902C105.09 77.2702 101.71 77.6302 98.46 78.5602C96.75 78.9202 95.37 79.6902 93.82 80.2502C88.02 82.3702 83.52 86.1202 79.99 91.0802C76.91 95.3602 75.75 100.6 73.2 105.13L73.18 105.31C72.07 108.52 71.51 111.79 71.14 115.08C70.85 117.64 70.74 120.22 70.45 122.78C69.94 130.5 72.09 144.09 78.34 149.43C80.71 151.37 82.76 152.9 85.36 154.49C86.05 154.94 86.92 155.41 87.47 155.47C91.59 156.68 95.94 157.55 100.21 157.48C104.66 157.43 108.85 156.43 112.82 154.1C120.35 149.77 125.62 142.59 130.27 135.9C132.98 132.32 139.94 121.11 143.65 114.17C144.14 116.64 144.63 119.1 145.12 121.57C145.93 126.1 147.13 130.75 148.12 135.24C148.38 136.69 148.85 138.29 148.93 139.77C149.12 140.86 149.17 142.16 149.36 143.24C150.38 147.92 151.01 152.48 151.82 157.01C152.21 159.18 152.56 161.18 153.13 163.32C153.8 166.01 154.64 168.66 155.13 171.38C155.91 175.73 157.56 179.73 159.39 183.71C159.64 184.04 159.91 184.55 160.34 184.85C161.19 185.45 161.54 186.32 161.88 187.19C162.5 188.58 163.27 189.75 164.88 190.39C166.06 190.74 167.46 191.24 168.8 191.37C170.53 191.62 172.04 191.73 173.51 190.53C173.99 190.07 174.71 189.94 175.26 189.84C177.53 190 179.25 189.13 180.16 186.91L180.57 186.09C182.12 184.32 182.67 182.16 183.01 179.86C183.53 177.52 183.65 175.07 183.96 172.59C184.4 168.77 184.12 165.08 183.25 161.31C182.65 158.99 182.05 156.66 181.63 154.31C181.37 152.86 181.29 151.38 181.03 149.93C180.59 148.05 180.2 146.1 179.83 144.15C184.93 144.03 190.03 144.09 195.13 144.26C195.48 146.62 195.68 149.06 195.51 151.46C195.43 152.28 195.34 153.04 195.33 153.8C193.81 154.17 192.3 154.58 190.8 155.07L191.18 157.82C192.65 158 194.1 158.2 195.55 158.41C195.53 161.31 195.18 164.16 194.75 167.11C194.46 170.71 193.99 174.35 193.88 177.92C193.81 179.62 193.71 181.13 192.66 182.62C191.62 184.11 191.99 185.17 193.67 186.18C194.07 186.3 194.49 186.6 195.07 186.68C195.56 187.34 196.38 187.75 196.93 187.66C198.84 187.88 200.68 187.74 202.71 187.56C203.98 187.33 205.21 186.93 206.66 186.67L208.41 185.98C211.48 184.31 213.48 181.9 215.26 179.33C219.65 174.92 223.2 169.39 226.14 164.01C228.17 164.39 230.21 164.77 232.27 165.13C244.72 167.31 258.7 168.51 268.7 176.37C274.38 181.27 278.06 189.67 274.59 197.92L276.85 199.53C280.61 195.95 282.57 190.23 282.18 184.71C280.2 161.43 253.04 154.89 233.92 153.17C232.87 153.05 231.82 152.94 230.76 152.83C231.48 151.15 232.22 149.37 232.96 147.51C259.27 151.16 286.7 157.34 307.32 174.03C315.81 181.37 324.7 189.62 325.24 200.88C326.06 225.33 276.52 238.22 257.05 243.93C228.28 251.16 198.46 254.89 168.73 253.89L168.36 256.64C183.3 259.92 198.69 260.59 213.94 260.5C247.84 260.61 339.28 247.35 340.7 203.66C341.58 186.28 327.03 172.81 313.67 164.94C289.63 151.12 262.4 145.21 234.77 142.81C235.26 141.48 235.76 140.14 236.24 138.75L239.35 129.97L239.68 128.85C239.83 129.36 239.89 129.9 239.94 130.43C240.14 131.93 240.54 133.28 241.9 134.36C242.93 135.03 244.13 135.91 245.37 136.42C246.95 137.16 248.37 137.69 250.12 136.96C250.71 136.66 251.44 136.74 251.99 136.8C254.12 137.6 256.01 137.26 257.52 135.39L258.15 134.72C260.15 133.47 261.29 131.56 262.27 129.45C263.43 127.36 264.25 125.04 265.26 122.75C266.77 119.22 267.56 115.6 267.81 111.74C267.9 109.34 267.99 106.94 268.26 104.57C268.43 103.11 268.78 101.67 268.94 100.2C269.13 96.8902 269.53 93.4102 269.9 90.1202C270.11 88.2902 270.64 86.8702 271.91 85.5302L278.58 79.0602C279.62 78.0702 280.82 77.2802 282.18 76.6902C284.32 75.8202 285.67 76.9002 285.97 79.1602C286.01 80.4602 286.02 81.9402 285.88 83.2202C285.62 87.0802 285.94 90.8202 284.79 94.4002C284.5 95.2902 284.42 96.0302 284.32 96.9402C283.99 99.8702 283.45 102.95 282.38 105.8C281.87 107.04 281.38 108.09 281.23 109.37C280.41 113.35 278.89 116.88 277.17 120.58C275.86 123.95 274.37 127.3 273.24 130.69C272.69 132.29 272.15 133.72 270.73 134.85C269.3 135.98 269.36 137.1 270.68 138.55C271.02 138.77 271.35 139.18 271.88 139.43C272.16 140.2 272.83 140.84 273.38 140.9C275.15 141.66 276.95 142.05 278.94 142.46C280.22 142.61 281.52 142.57 282.98 142.74L284.85 142.58C288.27 141.86 290.87 140.12 293.32 138.17C299.24 134.96 304.6 130.2 309.21 125.53L309.07 125.14L311.01 122.77C314.84 118.39 319.98 112.31 325.05 105.29L330.54 97.7702L331.44 96.3902C331.85 96.0702 332.09 95.5402 332.32 95.1902L332.66 94.5902C332.84 97.9102 333.07 101.24 333.37 104.59C333.92 110.66 335.39 116.19 337.42 122.08C341.1 132.02 346.81 142.69 356.38 148.4C360.24 150.61 363.19 151.53 365.95 151.53C373.31 151.53 377.73 144.35 383.62 136.07C385.28 133.68 386.75 131.28 388.04 128.71C389.33 125.95 390.62 123.37 391.72 120.61C393.19 116.75 394.48 112.88 395.95 108.65L397.24 105.15C398.16 102.57 399.82 100 400.19 97.2302C400.93 95.7602 401.29 94.2902 402.21 92.6302C403.31 90.4202 404.05 87.8402 405.52 84.7102C406.07 83.7902 406.44 82.3202 406.81 80.8502L406.79 80.9302ZM95.85 115.72L97.8001 101.86L99.47 93.7102C100.21 90.4602 102.48 85.1602 106.39 85.0502C106.76 85.0902 107.44 85.5402 107.61 85.7402C109.65 88.9402 110.38 92.3602 109.39 96.1302C108.82 97.9202 108.61 99.7502 108.03 101.53C107.35 104.23 105.98 106.48 104.43 108.72C102.23 111.8 99.88 114.5 97.17 117.15C96.95 117.5 96.54 117.82 95.72 118.47C95.87 117.19 95.77 116.44 95.85 115.71V115.72ZM179.49 141.42L179.54 142.8C179.37 141.87 179.2 140.95 179.04 140.04C178.72 138.23 178.82 136.71 179.65 135.07L184.19 126.97C184.9 125.72 185.83 124.62 186.97 123.67C188.77 122.23 190.38 122.87 191.31 124.95C191.72 126.19 192.16 127.6 192.38 128.87C193.24 132.64 194.61 136.14 194.53 139.89C194.52 140.41 194.56 140.87 194.62 141.33C189.54 141.33 184.49 141.36 179.49 141.42ZM222.67 152.18C222.56 152.18 222.44 152.17 222.33 152.16C222.46 150.24 222.58 148.23 222.84 146.3C223.39 146.36 223.95 146.41 224.5 146.47C224.78 146.5 225.05 146.54 225.33 146.57C224.44 148.5 223.54 150.37 222.66 152.18H222.67ZM356.18 78.3602H355.81C355.63 77.8102 355.44 77.2602 355.44 76.8902V59.4002C355.62 56.2702 355.99 53.1402 356.36 49.8302C356.54 46.8902 356.91 43.9402 357.28 41.1802C357.65 37.5002 358.2 33.8202 358.75 30.1402C359.3 26.4602 360.22 22.5902 360.96 18.9102C361.33 17.4402 362.8 14.6802 363.72 13.7602L364.46 14.6802C364.83 15.9702 365.38 17.2602 365.38 18.7302C365.56 22.7802 365.93 27.0102 365.75 31.2502C365.57 36.5902 365.2 41.7402 364.65 47.0802C364.65 48.5502 364.28 49.8402 363.91 51.3102L362.07 60.1402C360.6 65.8502 359.31 71.7402 356.73 77.2602L356.18 78.3602Z" fill="#0499CB"/>
<path d="M129.78 170.94L128.99 168.28C122.13 167.39 114.22 169.87 109.63 175.69C106.75 178.97 105.26 183.73 105.75 188.11C108.63 205.59 129.05 215.38 144.69 218.3C153.07 219.85 161.65 219.74 169.77 218.02L169.63 215.25C151.31 212.9 131.9 206.94 120.16 192.19C113.5 183.81 123.27 176.76 129.77 170.96L129.78 170.94Z" fill="#0499CB"/>
<path d="M249.73 212.74L248.4 210.3C231.97 214.61 214.29 214.07 197.52 216.36L197.22 220.57C201.6 221.81 206.09 222.42 210.59 222.64C224.02 223 238.85 221.47 249.73 212.74Z" fill="#0499CB"/>
<path d="M97.5798 172.59C82.6998 182.99 81.1798 201.33 95.3898 212.91C122.63 235.52 161.75 238.06 195.49 237.27C212.53 236.5 229.44 233.97 245.68 228.97L245.25 226.23C212.16 226.44 179 228.27 146.82 220.93C131.69 217.33 105.82 210.09 98.3398 196.05C95.7298 186.27 104.84 177.72 111.17 169.05L109.73 166.67C105.29 167.84 101.34 169.92 97.5798 172.59Z" fill="#0499CB"/>
<path d="M67.74 194.88C70.28 186.6 76.41 181.45 83.28 175.39C88.15 171.27 93.2 167.35 98.56 163.49L96.72 159.15C89.87 160.48 83.32 163.12 77.21 166.45C58.67 175.56 45.5 195.48 57.77 215.52C67.61 231.11 84.69 239.51 101.08 245.89C114.1 250.47 127.69 252.9 141.21 252.87L141.54 250.11C128.74 246.8 116.39 242.53 104.98 236.73C90.78 229.01 62.79 213.93 67.75 194.87L67.74 194.88Z" fill="#0499CB"/>
<path d="M280.4 209.7C274.06 213.74 266.89 217.33 259.96 222.38L260.77 225.04C269.42 225.17 277.81 223.44 285.83 219.6C298.78 213.71 310.46 198.95 305.04 183.92C299.79 170.45 284.85 165.07 272.51 162.34L271.5 164.93C293.59 177.23 308.48 192.52 280.39 209.7H280.4Z" fill="#0499CB"/>
</g>
<defs>
<clipPath id="clip0_599_1576">
<rect width="483.91" height="260.56" fill="white"/>
</clipPath>
</defs>
</svg>
