<svg width="73" height="72" viewBox="0 0 73 72" fill="none" xmlns="http://www.w3.org/2000/svg">
<path d="M52.9705 72V67.0909C57.1088 67.0909 60.627 65.6596 63.5249 62.7971C66.4206 59.9324 67.8685 56.4545 67.8685 52.3636H72.8345C72.8345 57.8182 70.9033 62.4545 67.0408 66.2727C63.1784 70.0909 58.4883 72 52.9705 72ZM0 19.6364C0 14.1818 1.93122 9.54545 5.79365 5.72727C9.65609 1.90909 14.3462 0 19.8639 0V4.90909C15.7256 4.90909 12.2075 6.34036 9.30957 9.20291C6.41385 12.0676 4.96599 15.5455 4.96599 19.6364H0ZM7.94558 64.1455C5.29705 61.5273 3.31066 58.5545 1.98639 55.2273C0.662132 51.9 0 48.504 0 45.0393C0 41.5767 0.662132 38.1818 1.98639 34.8545C3.31066 31.5273 5.29705 28.5545 7.94558 25.9364L26.1542 7.93636L32.0306 13.7455L15.6429 29.9455C17.85 31.6909 19.2018 34.0222 19.6984 36.9393C20.195 39.8585 19.2294 42.5455 16.8016 45L19.119 47.2909C21.3813 45.2182 22.6648 42.4636 22.9693 39.0273C23.2717 35.5909 22.3469 32.5909 20.195 30.0273L48.3356 2.20909L54.212 8.01818L33.1893 28.8L35.5068 31.0909L61.2472 5.64545L67.1236 11.4545L41.3832 36.9L43.7007 39.1909L65.8821 17.2636L71.7585 23.0727L47.1769 47.3727L49.4943 49.6636L67.1236 32.2364L73 38.0455L46.5975 64.1455C43.949 66.7636 40.9418 68.7273 37.576 70.0364C34.2101 71.3455 30.7759 72 27.2732 72C23.7683 72 20.333 71.3455 16.9671 70.0364C13.6013 68.7273 10.5941 66.7636 7.94558 64.1455Z" fill="black"/>
</svg>
