<svg width="86" height="52" viewBox="0 0 86 52" fill="none" xmlns="http://www.w3.org/2000/svg">
<path d="M10.8781 20.0235C10.9958 19.9531 11.0869 19.8437 11.1365 19.713C11.1861 19.5823 11.1913 19.4381 11.1511 19.3041L8.98477 12.0451H12.9819C13.0994 12.0451 13.2143 12.0097 13.3124 11.9432C13.4106 11.8766 13.4877 11.7819 13.5343 11.6707C13.5809 11.5595 13.5948 11.4367 13.5745 11.3174C13.5541 11.198 13.5003 11.0875 13.4197 10.9994L3.79681 0.455709C3.7037 0.353607 3.5798 0.287037 3.4453 0.26685C3.3108 0.246662 3.17364 0.274048 3.05617 0.344545C2.9387 0.415043 2.84785 0.524494 2.79842 0.655056C2.749 0.78562 2.74391 0.929598 2.784 1.06352L4.95036 8.32376H0.953236C0.83577 8.32371 0.720861 8.35914 0.622695 8.42566C0.524529 8.49219 0.447403 8.5869 0.400837 8.69811C0.354272 8.80932 0.340306 8.93216 0.360664 9.05146C0.381021 9.17076 0.43481 9.28131 0.515392 9.36944L10.1383 19.9131C10.2313 20.0151 10.355 20.0816 10.4893 20.1019C10.6236 20.1221 10.7607 20.095 10.8781 20.0247V20.0235Z" fill="#1F1F1F"/>
<path d="M82.6581 0.345639C82.7831 0.416019 82.8799 0.525489 82.9326 0.656166C82.9853 0.786842 82.9908 0.931 82.9482 1.06509L80.6464 8.32409H84.8934C85.0182 8.32404 85.1403 8.35946 85.2446 8.42599C85.3489 8.49252 85.4308 8.58723 85.4803 8.69844C85.5298 8.80965 85.5446 8.93249 85.523 9.05179C85.5013 9.17109 85.4442 9.28163 85.3586 9.36977L75.1342 19.9134C75.0353 20.0155 74.9036 20.0821 74.7607 20.1023C74.6178 20.1225 74.4721 20.0951 74.3473 20.0246C74.2225 19.9541 74.1259 19.8446 74.0734 19.7141C74.0209 19.5835 74.0155 19.4395 74.0581 19.3056L76.3599 12.0454H72.1129C71.9881 12.0454 71.866 12.01 71.7617 11.9435C71.6574 11.877 71.5755 11.7822 71.526 11.671C71.4765 11.5598 71.4617 11.437 71.4833 11.3177C71.5049 11.1984 71.5621 11.0878 71.6477 10.9997L81.8721 0.456038C81.9709 0.354073 82.1023 0.287548 82.245 0.26728C82.3877 0.247011 82.5333 0.27419 82.6581 0.344399V0.345639Z" fill="#1F1F1F"/>
<path d="M50.0749 16.6455C50.0749 18.3591 49.367 20.0024 48.1069 21.2141C46.8467 22.4258 45.1376 23.1065 43.3555 23.1065C41.5734 23.1065 39.8643 22.4258 38.6042 21.2141C37.3441 20.0024 36.6362 18.3591 36.6362 16.6455C36.6362 14.932 37.3441 13.2886 38.6042 12.0769C39.8643 10.8653 41.5734 10.1846 43.3555 10.1846C45.1376 10.1846 46.8467 10.8653 48.1069 12.0769C49.367 13.2886 50.0749 14.932 50.0749 16.6455ZM63.5137 17.9377C63.5137 19.3085 62.9473 20.6232 61.9392 21.5926C60.9311 22.5619 59.5638 23.1065 58.1382 23.1065C56.7125 23.1065 55.3452 22.5619 54.3371 21.5926C53.329 20.6232 52.7627 19.3085 52.7627 17.9377C52.7627 16.5669 53.329 15.2522 54.3371 14.2828C55.3452 13.3135 56.7125 12.7689 58.1382 12.7689C59.5638 12.7689 60.9311 13.3135 61.9392 14.2828C62.9473 15.2522 63.5137 16.5669 63.5137 17.9377ZM28.5729 23.1065C29.9986 23.1065 31.3658 22.5619 32.374 21.5926C33.3821 20.6232 33.9484 19.3085 33.9484 17.9377C33.9484 16.5669 33.3821 15.2522 32.374 14.2828C31.3658 13.3135 29.9986 12.7689 28.5729 12.7689C27.1472 12.7689 25.7799 13.3135 24.7718 14.2828C23.7637 15.2522 23.1974 16.5669 23.1974 17.9377C23.1974 19.3085 23.7637 20.6232 24.7718 21.5926C25.7799 22.5619 27.1472 23.1065 28.5729 23.1065ZM32.6045 28.9213C32.6045 27.1381 34.1097 25.6908 35.9642 25.6908H50.7469C52.6014 25.6908 54.1065 27.1381 54.1065 28.9213V41.1971C54.1065 43.9388 52.9739 46.5682 50.9576 48.5068C48.9414 50.4455 46.2069 51.5346 43.3555 51.5346C40.5042 51.5346 37.7696 50.4455 35.7534 48.5068C33.7372 46.5682 32.6045 43.9388 32.6045 41.1971V28.9213ZM29.9168 28.9213C29.9168 27.7247 30.2931 26.616 30.9354 25.6908H25.2132C23.3587 25.6908 21.8535 27.1381 21.8535 28.9213V38.6127C21.8534 39.7191 22.0995 40.8128 22.5755 41.8201C23.0514 42.8275 23.746 43.7252 24.6126 44.4531C25.4793 45.1809 26.4979 45.7219 27.6001 46.0398C28.7023 46.3577 29.8624 46.4451 31.0026 46.2961C30.2835 44.6852 29.914 42.9501 29.9168 41.1971V28.9213ZM56.7943 41.1971C56.7943 43.0062 56.4073 44.7325 55.7084 46.2961C56.8486 46.4451 58.0088 46.3577 59.111 46.0398C60.2131 45.7219 61.2318 45.1809 62.0984 44.4531C62.9651 43.7252 63.6597 42.8275 64.1356 41.8201C64.6115 40.8128 64.8577 39.7191 64.8576 38.6127V28.9213C64.8576 27.1381 63.3524 25.6908 61.4979 25.6908H55.7756C56.4207 26.616 56.7943 27.7247 56.7943 28.9213V41.1971Z" fill="#1F1F1F"/>
</svg>
